# xmcd
#
# Track frame offsets:
# 150
# 15241
# 26489
# 36223
# 46439
# 57688
# 66501
# 77764
# 88882
# 103477
#
# Disc length: 1570 seconds
#
#
# Revision: 0
# Processed by: cddbd v1.5.1PL2 Copyright (c) Steve Scherf et al.
# Submitted via: FreeRIP 2.945 
#
DISCID=8906200a
DTITLE=Johnny Rodriguez - Greatest Hits
DYEAR=2005
DGENRE=Country
TTITLE0=Desperado
TTITLE1=You Always Come Back
TTITLE2=Ridin' My Thumb To Mexico
TTITLE3=That's The Way Loves Goes
TTITLE4=I Just Can't Get Her Out Of My Mind
TTITLE5=Just Get Up And Close The Door
TTITLE6=I Wonder If I Ever Said Goodbye
TTITLE7=Pass Me By
TTITLE8=Run For The Border
TTITLE9=What's New In Old Mexico
EXTD=Intersound
EXTT0=
EXTT1=
EXTT2=
EXTT3=
EXTT4=
EXTT5=
EXTT6=
EXTT7=
EXTT8=
EXTT9=
PLAYORDER=
